<svg id="a6fcc900-8bf1-4f3b-a188-8f8918f21598" data-name="Calque 1" xmlns="http://www.w3.org/2000/svg" viewBox="0 0 52.62992 58"><path d="M25.64142,5.04763a11.52306,11.52306,0,0,1-.40547,6.40743,12.21954,12.21954,0,0,1-6.94248,6.86739A14.71243,14.71243,0,0,1,10.78792,13.743,14.56448,14.56448,0,0,1,7.59091,7.359,9.42962,9.42962,0,0,1,12.8354,1.67611a8.92349,8.92349,0,0,1,7.92241.55647Z" transform="translate(-7.17718 -1.00268)" style="fill:#115a79"/><path d="M42.54971,14.81491a51.53079,51.53079,0,0,1-10.75336,3.03621,51.58723,51.58723,0,0,1-13.50288.47133l7.348-13.27482,8.34619,4.82071Z" transform="translate(-7.17718 -1.00268)" style="fill:#1e6a8a"/><path d="M49.8796,19.04194v.009a11.71359,11.71359,0,0,1-3.17478,9.26357A21.95411,21.95411,0,0,1,42.5587,14.82386l.44069.25185Z" transform="translate(-7.17718 -1.00268)" style="fill:#3a85a7"/><path d="M59.78175,30.69789a22.07486,22.07486,0,0,1-13.07693-2.38337L49.8796,19.051l5.39626,3.11186A8.98673,8.98673,0,0,1,59.78175,30.69789Z" transform="translate(-7.17718 -1.00268)" style="fill:#64b0d5"/><path d="M59.78175,30.69789A8.9381,8.9381,0,0,1,55.27586,37.848L53.594,38.8193l-6.6014,3.81335a13.33515,13.33515,0,0,1-.28781-14.31813Z" transform="translate(-7.17718 -1.00268)" style="fill:#73bfe6"/><path d="M46.70482,28.31452a39.537,39.537,0,0,1-10.8846,7.15739,39.40979,39.40979,0,0,1-9.54928,2.83473,21.1432,21.1432,0,0,1-7.69229-11.44709,20.34191,20.34191,0,0,1-.28518-8.5371,63.5428,63.5428,0,0,1,28.41135,9.99207Z" transform="translate(-7.17718 -1.00268)" style="fill:#4894b7"/><path d="M18.29347,18.32245A19.71137,19.71137,0,0,1,14.618,24.66433a19.81974,19.81974,0,0,1-7.4408,5.341V10.07518A8.89922,8.89922,0,0,1,7.59091,7.359Z" transform="translate(-7.17718 -1.00268)" style="fill:#1e6a8a"/><path d="M26.27094,38.30664A25.31793,25.31793,0,0,1,7.17718,49.18909V30.00535a83.80456,83.80456,0,0,1,8.63334,3.05613A83.83926,83.83926,0,0,1,26.27094,38.30664Z" transform="translate(-7.17718 -1.00268)" style="fill:#57a2c7"/><path d="M29.32885,52.83155l-8.571,4.94658A9.05588,9.05588,0,0,1,7.17718,49.93559v-.7465L26.27094,38.30664a17.96543,17.96543,0,0,1,3.05791,14.52491Z" transform="translate(-7.17718 -1.00268)" style="fill:#82cdf3"/><path d="M46.99263,42.63265,29.32885,52.83155,26.27094,38.30664a45.20393,45.20393,0,0,1,20.72169,4.326Z" transform="translate(-7.17718 -1.00268)" style="fill:#73bfe6"/><polygon points="39.528 27.312 11.116 17.32 35.373 13.812 35.382 13.812 35.382 13.821 39.528 27.312" style="fill:#2e7898"/><polygon points="39.815 41.63 19.094 37.304 39.528 27.312 39.815 41.63" style="fill:#64b0d5"/><polygon points="19.094 37.304 0 29.003 11.116 17.32 19.094 37.304" style="fill:#3a85a7"/><path d="M19.54775,6.5632" transform="translate(-7.17718 -1.00268)" style="fill:#1e6a8a"/><path d="M18.29347,18.32245" transform="translate(-7.17718 -1.00268)" style="fill:#115a79"/><path d="M29.00281,3.6559" transform="translate(-7.17718 -1.00268)" style="fill:#115a79"/></svg>